<!-- icon666.com - MILLIONS vector ICONS FREE --><svg viewBox="0 0 416.98001 416.98001" xmlns="http://www.w3.org/2000/svg"><path d="m416.980469 208.488281c0 115.148438-93.34375 208.492188-208.492188 208.492188-115.144531 0-208.488281-93.34375-208.488281-208.492188 0-115.144531 93.34375-208.488281 208.488281-208.488281 115.148438 0 208.492188 93.34375 208.492188 208.488281zm0 0" fill="#f1c48b"></path><path d="m295.457031 240.101562h-209.066406l52.632813-83.410156-33.828126-21.34375-71.988281 114.082032c-3.886719 6.160156-4.113281 13.949218-.597656 20.328124 3.515625 6.382813 10.226563 10.34375 17.511719 10.34375h80.964844v73.328126h207.769531v-69.925782c.003906-23.972656-19.429688-43.402344-43.398438-43.402344zm0 0" fill="#a3d0f1"></path><path d="m295.457031 240.101562h-20.769531c23.96875 0 43.402344 19.429688 43.402344 43.402344v69.925782h20.769531v-69.925782c0-23.972656-19.433594-43.402344-43.402344-43.402344zm0 0" fill="#7bacf1"></path><path d="m338.855469 359.429688h-207.769531c-3.3125 0-6-2.6875-6-6v-67.328126h-74.964844c-9.472656 0-18.195313-5.152343-22.765625-13.445312-4.574219-8.292969-4.277344-18.421875.777343-26.429688l71.988282-114.082031c1.769531-2.800781 5.46875-3.640625 8.277344-1.871093l33.828124 21.34375c1.34375.851562 2.300782 2.199218 2.648438 3.75.351562 1.554687.074219 3.179687-.777344 4.527343l-46.824218 74.207031h198.183593c27.238281 0 49.398438 22.164063 49.398438 49.402344v69.925782c0 3.3125-2.683594 6-6 6zm-201.769531-12h195.769531v-63.925782c0-20.625-16.777344-37.402344-37.398438-37.402344h-209.066406c-2.183594 0-4.199219-1.1875-5.253906-3.101562-1.054688-1.914062-.984375-4.25.179687-6.101562l49.433594-78.332032-23.679688-14.941406-68.789062 109.003906c-2.71875 4.3125-2.882812 9.765625-.417969 14.234375 2.460938 4.460938 7.160157 7.238281 12.257813 7.238281h80.964844c3.3125 0 6 2.6875 6 6zm0 0" fill="#4c4372"></path><path d="m128.28125 149.910156 24.472656-37.695312c2.347656-3.683594 1.59375-8.535156-1.757812-11.339844-3.871094-3.242188-9.679688-2.511719-12.632813 1.582031l-26.636719 37.007813zm0 0" fill="#fff"></path><path d="m225.121094 63.550781c-31.867188 0-57.699219 25.832031-57.699219 57.703125v37.191406c0 31.867188 25.832031 57.703126 57.699219 57.703126 31.867187 0 57.703125-25.835938 57.703125-57.703126v-37.191406c0-31.871094-25.835938-57.703125-57.703125-57.703125zm0 0" fill="#fff"></path><path d="m225.121094 63.550781c-3.152344 0-6.246094.261719-9.261719.75 27.464844 4.429688 48.441406 28.238281 48.441406 56.953125v37.195313c0 28.710937-20.976562 52.519531-48.441406 56.949219 3.015625.488281 6.109375.75 9.261719.75 31.867187 0 57.703125-25.832032 57.703125-57.699219v-37.195313c0-31.871094-25.835938-57.703125-57.703125-57.703125zm0 0" fill="#d4e7f8"></path><path d="m225.121094 222.148438c-35.125 0-63.703125-28.578126-63.703125-63.699219v-37.195313c0-35.128906 28.574219-63.703125 63.703125-63.703125s63.703125 28.578125 63.703125 63.703125v37.195313c0 35.125-28.574219 63.699219-63.703125 63.699219zm0-152.597657c-28.507813 0-51.703125 23.191407-51.703125 51.703125v37.195313c0 28.507812 23.195312 51.699219 51.703125 51.699219 28.511718 0 51.703125-23.191407 51.703125-51.699219v-37.195313c0-28.511718-23.191407-51.703125-51.703125-51.703125zm0 0" fill="#4c4372"></path><path d="m151.085938 324.941406h49.335937v28.488282h-49.335937zm0 0" fill="#7bacf1"></path><path d="m249.824219 324.941406h49.332031v28.488282h-49.332031zm0 0" fill="#7bacf1"></path><path d="m245.890625 240.101562v-27.820312c-6.445313 2.867188-13.445313 4.457031-20.769531 4.457031-7.324219 0-14.324219-1.589843-20.769532-4.457031v27.820312l20.769532 47.660157zm0 0" fill="#d4e7f8"></path><path d="m210.886719 255.097656 14.234375 32.667969 14.238281-32.667969zm0 0" fill="#7bacf1"></path><g fill="#4c4372"><path d="m225.121094 293.765625c-2.386719 0-4.546875-1.417969-5.5-3.605469l-14.234375-32.664062c-.808594-1.855469-.625-3.992188.480469-5.6875 1.109374-1.691406 2.996093-2.710938 5.019531-2.710938h28.472656c2.023437 0 3.910156 1.019532 5.019531 2.710938 1.105469 1.695312 1.289063 3.832031.480469 5.6875l-14.238281 32.664062c-.953125 2.1875-3.113282 3.605469-5.5 3.605469zm-5.074219-32.667969 5.074219 11.644532 5.078125-11.644532zm0 0"></path><path d="m225.121094 293.765625c-2.386719 0-4.546875-1.417969-5.5-3.605469l-20.769532-47.664062c-.328124-.753906-.5-1.570313-.5-2.394532v-27.820312c0-2.03125 1.027344-3.921875 2.734376-5.03125 1.699218-1.109375 3.851562-1.277344 5.707031-.449219 11.746093 5.226563 24.910156 5.226563 36.660156 0 1.855469-.824219 4.007813-.660156 5.707031.453125 1.707032 1.105469 2.730469 3 2.730469 5.03125v27.820313c0 .824219-.167969 1.636719-.5 2.398437l-20.769531 47.660156c-.953125 2.183594-3.113282 3.601563-5.5 3.601563zm-14.769532-54.914063 14.769532 33.890626 14.773437-33.890626v-18.078124c-9.640625 2.613281-19.902343 2.613281-29.542969 0zm0 0"></path><path d="m200.417969 359.429688h-49.332031c-3.3125 0-6-2.6875-6-6v-28.488282c0-3.316406 2.6875-6 6-6h49.332031c3.3125 0 6 2.683594 6 6v28.488282c0 3.3125-2.683594 6-6 6zm-43.332031-12h37.332031v-16.488282h-37.332031zm0 0"></path><path d="m299.15625 359.429688h-49.332031c-3.3125 0-6-2.6875-6-6v-28.488282c0-3.316406 2.6875-6 6-6h49.332031c3.316406 0 6 2.683594 6 6v28.488282c0 3.3125-2.683594 6-6 6zm-43.332031-12h37.332031v-16.488282h-37.332031zm0 0"></path><path d="m225.121094 359.429688c-3.3125 0-6-2.6875-6-6v-65.664063c0-3.316406 2.6875-6 6-6 3.316406 0 6 2.683594 6 6v65.664063c0 3.3125-2.683594 6-6 6zm0 0"></path><path d="m299.15625 313.765625h-49.332031c-3.3125 0-6-2.6875-6-6 0-3.316406 2.6875-6 6-6h49.332031c3.316406 0 6 2.683594 6 6 0 3.3125-2.683594 6-6 6zm0 0"></path><path d="m200.417969 313.765625h-49.332031c-3.3125 0-6-2.6875-6-6 0-3.316406 2.6875-6 6-6h49.332031c3.3125 0 6 2.683594 6 6 0 3.3125-2.683594 6-6 6zm0 0"></path><path d="m338.859375 330.191406h-17.238281c-3.3125 0-6-2.683594-6-6 0-3.3125 2.6875-6 6-6h17.238281c3.3125 0 6 2.6875 6 6 0 3.316406-2.6875 6-6 6zm0 0"></path><path d="m312.484375 289.765625h-5.710937c-3.316407 0-6-2.6875-6-6 0-3.316406 2.683593-6 6-6h5.710937c1.0625 0 1.925781-.867187 1.925781-1.929687 0-3.722657 1.453125-7.222657 4.082032-9.851563l9.601562-9.597656c2.339844-2.34375 6.140625-2.34375 8.484375 0 2.34375 2.339843 2.34375 6.140625 0 8.484375l-9.601563 9.605468c-.367187.367188-.566406.847657-.566406 1.363282 0 7.675781-6.246094 13.925781-13.925781 13.925781zm0 0"></path><path d="m177.058594 290.699219c-1.535156 0-3.070313-.585938-4.242188-1.757813-2.34375-2.34375-2.34375-6.144531 0-8.488281l9.308594-9.308594c2.34375-2.34375 6.140625-2.34375 8.484375 0 2.34375 2.339844 2.34375 6.140625 0 8.484375l-9.308594 9.3125c-1.171875 1.171875-2.707031 1.757813-4.242187 1.757813zm0 0"></path></g><path d="m204.351562 240.101562-49.179687 25.328126 69.949219 22.335937zm0 0" fill="#7bacf1"></path><path d="m245.890625 240.101562 49.179687 25.328126-69.949218 22.335937zm0 0" fill="#7bacf1"></path><path d="m225.121094 293.765625c-.609375 0-1.222656-.09375-1.824219-.285156l-69.949219-22.335938c-2.3125-.738281-3.953125-2.796875-4.152344-5.214843-.207031-2.417969 1.070313-4.722657 3.230469-5.832032l49.179688-25.328125c1.472656-.761719 3.195312-.878906 4.761719-.320312 1.5625.558593 2.824218 1.738281 3.484374 3.257812l20.769532 47.660157c.941406 2.160156.53125 4.667968-1.046875 6.417968-1.15625 1.28125-2.78125 1.980469-4.453125 1.980469zm-54.308594-29.640625 43.519531 13.894531-12.921875-29.65625zm0 0" fill="#4c4372"></path><path d="m225.121094 293.765625c-1.667969 0-3.296875-.699219-4.453125-1.980469-1.578125-1.75-1.988281-4.257812-1.046875-6.417968l20.773437-47.664063c.660157-1.519531 1.921875-2.695313 3.484375-3.253906 1.5625-.554688 3.285156-.441407 4.761719.320312l49.179687 25.328125c2.15625 1.109375 3.433594 3.414063 3.230469 5.832032-.203125 2.417968-1.84375 4.476562-4.15625 5.214843l-69.949219 22.335938c-.597656.191406-1.214843.285156-1.824218.285156zm23.714844-45.398437-12.925782 29.652343 43.523438-13.894531zm0 0" fill="#4c4372"></path><path d="m111.789062 261.097656h-.875c-7.238281 0-13.125-5.890625-13.125-13.128906v-7.867188c0-3.316406 2.683594-6 6-6 3.3125 0 6 2.683594 6 6v7.867188c0 .621094.503907 1.128906 1.125 1.128906h.875c3.3125 0 6 2.683594 6 6 0 3.3125-2.6875 6-6 6zm0 0" fill="#4c4372"></path><path d="m58.570312 238.671875c-4.222656 0-8.195312-1.644531-11.179687-4.632813l-3.699219-3.699218c-2.34375-2.34375-2.34375-6.144532 0-8.484375 2.34375-2.34375 6.136719-2.34375 8.484375 0l3.699219 3.699219c1.441406 1.441406 3.949219 1.441406 5.386719 0 2.34375-2.34375 6.140625-2.339844 8.484375 0 2.34375 2.34375 2.34375 6.144531 0 8.488281-2.984375 2.984375-6.953125 4.628906-11.175782 4.628906zm0 0" fill="#4c4372"></path><path d="m120.835938 191.511719c-1.332032 0-2.679688-.445313-3.792969-1.355469l-13.050781-10.664062c-2.5625-2.097657-2.945313-5.875-.851563-8.441407 2.09375-2.566406 5.875-2.949219 8.445313-.851562l13.050781 10.664062c2.566406 2.097657 2.949219 5.875.851562 8.441407-1.1875 1.453124-2.910156 2.207031-4.652343 2.207031zm0 0" fill="#4c4372"></path><path d="m128.273438 155.910156c-1.09375 0-2.203126-.296875-3.195313-.925781l-16.554687-10.445313c-1.398438-.882812-2.375-2.304687-2.6875-3.925781-.316407-1.628906.050781-3.308593 1.019531-4.652343l26.636719-37.007813c2.753906-3.824219 7.214843-6.105469 11.933593-6.105469 3.433594 0 6.78125 1.214844 9.421875 3.425782 5.640625 4.71875 6.917969 12.957031 2.964844 19.164062l-24.5 37.742188c-1.148438 1.769531-3.070312 2.730468-5.039062 2.730468zm-7.953126-18.113281 6.152344 3.878906 21.246094-32.726562c.699219-1.09375.464844-2.605469-.570312-3.472657-.621094-.519531-1.28125-.628906-1.722657-.628906-.417969 0-1.464843.109375-2.195312 1.121094zm0 0" fill="#4c4372"></path></svg>